PathFileType	3	(X/Y/Z)	D:\minhoCalibration\240510\subject4_KPNP\preferred\preferred08.trc
DataRate	CameraRate	NumFrames	NumMarkers	Units	OrigDataRate	OrigDataStartFrame	OrigNumFrames
200.0	200.0	34	10	mm	200.0	233	89	
Frame#	Time	Left_Ankle_Outer1			Left_Ankle_Inner1			Left_Knee_Outer1			Left_Knee_Inner1			Left_Wrist1			Right_Wrist1			Right_Knee_Inner1			Right_Knee_Outer1			Right_Ankle_Inner1			Right_Ankle_Outer1			
		X1	Y1	Z1	X2	Y2	Z2	X3	Y3	Z3	X4	Y4	Z4	X5	Y5	Z5	X6	Y6	Z6	X7	Y7	Z7	X8	Y8	Z8	X9	Y9	Z9	X10	Y10	Z10	
233	1.155	-380.62643	1173.4717	314.88943	-419.33118	1075.3538	319.6817	-251.69388	1085.5182	798.08051	-309.57175	992.60748	779.25684	-332.08002	1234.2205	1184.1207	-359.58133	932.35309	1404.0607	-259.60382	570.49811	1129.3499	-247.6459	581.55316	1237.3927	-426.31094	125.61163	1210.3436	-403.10318	133.05084	1261.8965
234	1.16	-390.99576	1168.1976	315.3764	-420.73944	1068.1659	323.45392	-247.29576	1088.4739	796.98071	-304.37689	996.60211	778.47034	-336.13889	1235.4495	1182.5065	-356.56131	932.68311	1400.7548	-262.53992	568.87604	1125.6996	-249.82602	580.37695	1233.41	-428.45166	124.61585	1209.553	-404.79941	132.48351	1260.8212
235	1.165	-404.86719	1162.6628	317.39948	-422.2681	1059.748	326.09335	-241.67061	1090.8348	796.8017	-290.90619	999.53101	776.22998	-340.42072	1236.6965	1180.4233	-353.31763	932.80383	1397.1398	-264.68655	567.56134	1121.4879	-251.85257	578.9881	1228.9828	-429.95804	123.5838	1208.9291	-406.00735	132.01056	1260.1948
236	1.17	-419.14325	1155.2004	319.6954	-422.69925	1051.2842	327.31934	-236.76527	1093.0215	797.07574	-279.2034	1003.9176	776.68188	-344.91711	1237.5197	1177.8196	-349.97433	932.70441	1393.3781	-267.91672	566.1106	1117.6392	-253.68031	577.78333	1224.6147	-431.02716	122.80842	1208.8284	-406.61136	131.5368	1259.8185
237	1.175	-429.24774	1147.5288	321.41122	-424.55283	1043.3556	328.44165	-233.76378	1094.8888	798.19263	-269.60724	1010.2172	778.70099	-350.23404	1238.0891	1175.0612	-346.76318	932.31934	1389.4325	-270.61398	564.83374	1113.3241	-255.09778	576.83197	1220.299	-432.05811	121.85358	1209.1	-406.76663	131.04913	1259.6626
238	1.18	-435.79388	1140.1858	321.82254	-426.35379	1035.1304	329.07932	-234.63704	1098.2223	800.87018	-262.14218	1017.4526	781.83337	-355.86905	1238.3944	1172.3267	-343.58444	931.62347	1385.4866	-273.53506	564.03522	1109.1012	-256.2728	575.98676	1215.8168	-433.07794	120.93135	1209.406	-406.64709	130.73436	1259.7789
239	1.185	-441.05734	1130.8055	321.14679	-428.09241	1026.6548	330.57794	-238.40089	1104.1041	803.73645	-257.62393	1025.0619	784.6076	-362.08173	1238.4672	1169.8514	-340.61093	930.64246	1381.4604	-276.95944	563.10583	1104.9869	-257.00165	575.32861	1211.2449	-433.72562	120.4578	1210.4158	-406.25797	130.59941	1259.9916
240	1.19	-445.90036	1121.4357	319.69687	-427.35184	1016.5541	330.93167	-244.14581	1112.5609	805.58044	-256.30603	1032.2738	785.87689	-368.72391	1238.1454	1167.8188	-337.90717	929.48914	1377.3634	-279.79099	562.65771	1100.5645	-257.32736	574.94666	1206.931	-434.04742	119.86208	1210.9163	-405.81625	130.70688	1260.2765
241	1.195	-450.53302	1109.7222	317.9389	-425.39429	1007.9298	330.79578	-250.98503	1122.3051	806.1861	-256.36768	1038.7544	786.1781	-375.0542	1237.3392	1165.7747	-335.55463	928.21674	1373.5389	-282.72116	562.23138	1096.299	-257.7532	574.79242	1201.9727	-434.28647	119.70618	1211.4985	-405.26389	131.05498	1260.1144
242	1.2	-455.05212	1097.4626	316.54221	-421.92667	998.25531	330.73108	-259.60895	1131.8956	806.13654	-256.56317	1044.9066	786.52136	-381.44681	1236.6887	1163.9662	-333.5647	926.75104	1369.6285	-285.76407	562.185	1092.2429	-257.57584	574.63068	1197.2378	-435.08588	119.78946	1211.6084	-404.86362	131.58072	1259.6199
243	1.205	-459.02637	1084.0939	315.71625	-416.68359	988.42853	330.56699	-270.6572	1140.0902	804.76605	-256.96368	1050.8022	786.69775	-387.55099	1236.0034	1162.1451	-331.97461	925.45789	1365.9852	-288.47791	562.05597	1088.2261	-257.2106	574.37988	1192.3081	-436.14468	120.00162	1211.1333	-404.92587	132.32359	1258.5756
244	1.21	-461.97681	1069.7505	315.29553	-410.40793	978.90582	330.96033	-284.34341	1146.0961	802.12012	-257.9903	1056.2679	786.23724	-394.01974	1235.3589	1160.709	-330.55997	924.117	1362.325	-291.06366	562.18866	1084.3362	-256.7626	574.26971	1187.1669	-436.82104	120.18689	1209.6681	-405.41367	133.16179	1256.9187
245	1.215	-463.41888	1055.1742	315.35202	-403.85501	970.28467	331.01038	-298.37128	1149.6823	798.61224	-259.84952	1061.3037	785.6123	-400.22888	1235.0367	1159.3486	-329.07217	922.72351	1358.746	-293.17599	562.34363	1080.3627	-256.21185	574.2691	1182.3229	-438.75101	120.47012	1208.1052	-406.32846	134.04997	1254.734
246	1.22	-464.13535	1040.7173	315.61075	-397.22296	961.35486	331.2688	-311.42477	1150.8656	795.39319	-262.5415	1065.7844	785.29279	-406.20633	1234.5096	1158.7332	-327.30383	921.12518	1355.3562	-295.43073	562.69312	1076.7065	-255.51274	574.29333	1177.5071	-440.32806	120.94849	1205.7897	-407.69006	134.81709	1252.1124
247	1.225	-464.2421	1026.726	316.04553	-390.72916	952.46808	331.19464	-323.13107	1150.2157	792.95862	-265.59055	1069.5056	785.21307	-412.20102	1233.767	1158.757	-325.38074	919.56946	1352.4567	-297.81268	563.18304	1073.3269	-254.86771	574.37988	1172.8295	-442.49921	121.17361	1203.337	-409.32358	135.33656	1249.1686
248	1.23	-463.28204	1011.8401	316.35709	-384.78662	943.84601	331.32825	-333.23773	1148.4517	791.34937	-268.88007	1071.9233	785.28381	-417.65176	1232.8109	1159.2234	-323.1254	917.90503	1349.884	-299.27942	563.79474	1069.7772	-254.26578	574.46906	1168.34	-443.99921	121.53512	1200.5793	-411.04913	135.69696	1246.2396
249	1.235	-462.58255	997.27612	316.93744	-378.89029	934.55212	329.10889	-342.16617	1145.938	790.21222	-272.73615	1072.6293	785.16718	-422.72653	1231.4427	1160.1632	-320.54547	916.48346	1347.5552	-301.35791	564.43127	1066.9027	-253.7486	574.43585	1164.1718	-445.5809	121.14256	1197.7914	-412.71594	135.88203	1243.4847
250	1.24	-461.62195	982.96143	317.50143	-374.19437	925.53094	329.77094	-349.37735	1142.6998	789.13104	-279.26129	1071.4996	786.06744	-427.37152	1229.7994	1161.1125	-317.55481	915.38464	1345.2365	-302.9762	564.63806	1063.9202	-253.27969	574.30304	1160.3773	-447.09396	120.87914	1195.3866	-414.24731	135.89772	1241.2363
251	1.245	-460.68295	968.61572	318.28079	-370.46307	916.22601	331.31769	-356.01337	1139.1571	788.41217	-284.26224	1069.7385	786.29999	-432.09903	1228.0027	1161.8665	-314.34637	914.77539	1343.0071	-304.08792	564.60181	1061.0961	-253.07617	574.05127	1157.0594	-448.10043	120.36652	1193.8241	-415.48355	135.70438	1239.3992
252	1.25	-460.27438	954.21307	319.44901	-367.2222	906.52881	332.00577	-361.90625	1135.2513	787.48236	-290.70486	1067.0525	786.36237	-436.06946	1225.137	1162.6315	-311.08066	914.48584	1340.7026	-304.68362	564.38525	1058.2552	-252.93794	573.58539	1154.1072	-449.1969	119.92136	1193.0344	-416.3472	135.36517	1238.1929
253	1.255	-459.48917	939.26392	320.55319	-365.013	896.56549	333.49307	-367.88376	1131.2037	786.69604	-296.45093	1063.2812	786.47943	-440.2677	1222.6561	1162.9645	-307.80368	914.45258	1338.4464	-305.35428	563.63629	1055.9067	-252.88004	572.91595	1151.5834	-450.01508	119.44423	1192.6855	-416.96408	134.9393	1237.6927
254	1.26	-459.96512	924.6687	322.83688	-363.7193	886.30505	334.86127	-373.44794	1127.067	786.15826	-301.9129	1059.4775	786.91864	-444.073	1219.3785	1163.1917	-304.58682	914.68286	1336.5886	-305.84174	562.54181	1054.1104	-253.039	572.03473	1149.2822	-450.35623	118.49168	1193.1724	-417.2392	134.33121	1237.9667
255	1.265	-460.60733	909.73315	325.54187	-363.08908	875.63184	337.01282	-380.02011	1122.5616	785.45374	-307.07843	1055.6283	787.65686	-448.19568	1216.2141	1163.4031	-301.35995	914.99304	1334.8553	-306.46039	561.21161	1052.6792	-252.84573	570.8783	1147.8524	-450.94104	117.8385	1194.5948	-417.04727	133.72951	1238.8015
256	1.27	-461.9201	894.38879	329.00497	-362.59277	864.76569	339.9653	-386.65695	1118.1229	785.03577	-312.1514	1051.526	788.55548	-451.99902	1212.6697	1163.67	-298.13474	915.37299	1333.0193	-306.18262	559.34015	1050.9662	-253.21683	569.42786	1146.1385	-451.4212	117.16365	1196.8928	-416.45847	132.98885	1240.3804
257	1.275	-462.69458	878.98236	332.76682	-362.69958	853.54486	343.42136	-392.79089	1113.4541	784.46344	-316.93768	1047.8226	789.60712	-455.70221	1208.9164	1163.8794	-295.03021	915.73822	1331.3461	-306.75934	556.92419	1050.2587	-253.37004	567.82397	1144.9767	-450.91196	116.38993	1199.3563	-415.5751	132.30414	1242.4021
258	1.28	-464.77081	862.72443	337.62277	-363.20288	842.02466	347.55606	-398.50681	1109.0405	783.93549	-320.99521	1045.1624	790.62939	-459.53189	1205.1713	1164.1168	-292.00214	915.89307	1329.8217	-306.54587	554.55151	1048.6929	-253.46184	566.11761	1143.9603	-449.82007	115.21243	1202.476	-414.4032	131.41417	1244.9852
259	1.285	-467.05246	846.30084	343.11478	-364.5123	830.42102	352.28531	-404.34659	1104.3287	783.51947	-325.33429	1041.8578	791.24353	-462.86667	1201.5502	1164.3444	-289.13126	916.11938	1328.3772	-307.3819	552.0849	1049.0734	-253.4675	564.22833	1143.2455	-449.86731	114.5519	1206.1559	-412.95444	130.60922	1247.704
260	1.29	-470.01715	830.18811	349.6026	-367.22278	818.03027	356.97113	-409.59253	1099.6018	783.19049	-328.98621	1039.0519	791.53912	-466.2153	1198.3561	1164.635	-286.42938	915.92596	1326.9565	-307.61005	549.68555	1048.5569	-253.32611	562.28961	1142.6267	-448.21375	113.30028	1209.7561	-411.24884	129.66096	1250.4753
261	1.295	-473.75705	812.85638	356.45859	-370.37589	805.1264	362.22192	-414.49707	1094.645	783.03308	-332.16159	1036.385	791.38251	-469.36102	1195.2681	1164.9734	-283.72852	915.72968	1325.837	-308.78726	547.64362	1048.7684	-253.04826	560.39026	1142.0416	-447.05093	112.15195	1213.3568	-409.49652	128.64938	1253.365
262	1.3	-478.3862	796.3811	364.05295	-373.48499	791.54144	368.67203	-419.34238	1089.9257	782.91626	-335.13089	1033.6075	791.11151	-472.21973	1192.9227	1165.3346	-281.46796	915.35632	1324.4659	-309.83923	545.27704	1048.8021	-252.56786	558.48181	1141.4556	-446.36877	111.19389	1216.8029	-407.6748	127.66186	1256.1278
263	1.305	-483.18927	779.62585	372.10791	-378.61282	778.14661	375.03488	-423.23297	1084.9755	782.88885	-337.8381	1030.5586	790.64893	-474.91797	1190.8268	1165.8453	-279.32056	914.96606	1323.2991	-311.31677	543.42981	1048.8572	-251.76611	556.71326	1140.77	-444.67603	109.87717	1220.1423	-405.84354	126.58991	1258.8328
264	1.31	-489.12021	763.27264	381.14334	-383.76965	763.76904	381.93573	-426.94727	1080.1833	782.95502	-340.60318	1027.1676	790.16492	-477.82416	1188.874	1166.2583	-277.43085	914.69647	1322.2524	-312.12769	541.43274	1048.8818	-250.90637	555.08557	1140.0677	-443.29691	108.55315	1223.6163	-404.01428	125.44688	1261.4141
265	1.315	-495.66751	747.03546	390.42059	-390.09784	748.61975	389.29858	-431.25488	1074.8418	783.17413	-342.99152	1023.5121	789.6582	-480.64954	1186.7559	1166.7299	-275.78525	914.4317	1321.5454	-313.05261	539.70789	1049.0846	-249.87167	553.59863	1139.0623	-442.89307	108.0879	1226.8138	-402.33264	124.42351	1263.9194
266	1.32	-502.13962	730.34741	400.22501	-398.08279	732.5434	396.07349	-434.25269	1069.6445	783.08124	-345.19122	1019.3888	789.24329	-483.34381	1184.5652	1167.3259	-274.32123	914.19745	1320.8076	-314.3504	538.32251	1049.5797	-248.82693	552.20508	1137.9978	-441.69492	107.06305	1229.7767	-400.80157	123.33845	1266.3242
